<svg xmlns="http://www.w3.org/2000/svg" width="1421.07" height="1622" viewBox="0 0 1421.07 1622"><defs><style>.cls-1{fill:#eaf1ff;stroke:#becce9;stroke-miterlimit:10;stroke-width:22px;}</style></defs><g id="Warstwa_2" data-name="Warstwa 2"><g id="Shape"><path class="cls-1" d="M588.07,468V655h137c138,0,220-61,220-187,0-254-281-250-281-250H286.79L31.07,11h635c247,0,437.44,137.42,483,304,32,117,27.34,299-61,362-1.17.83,7,3,13.26,4.72,70.32,19.3,308.74,131.66,308.74,462.28,0,467-403,467-403,467h-976l247.5-226h592.5s278,10,278-254c0-141-88-283-307-283h-254v387h-249l-.5-767Z"/></g></g></svg>